<svg xmlns="http://www.w3.org/2000/svg" width="175" height="28" viewBox="0 0 175 28" fill="none"><path d="M23.3957 18.6417C23.3957 20.4884 22.9215 22.098 21.9732 23.4706C21.0499 24.8431 19.7397 25.9162 18.0427 26.6898C16.3458 27.4385 14.3244 27.8128 11.9786 27.8128C9.65773 27.8128 7.62387 27.426 5.87699 26.6524C4.15507 25.8538 2.78252 24.7308 1.75935 23.2834C0.761139 21.836 0.174688 20.1266 0 18.1551H7.14972C7.19963 19.4278 7.62387 20.4385 8.42244 21.1872C9.24597 21.9358 10.3814 22.3102 11.8289 22.3102C12.6524 22.3102 13.3636 22.2103 13.9625 22.0107C14.5615 21.8111 15.0231 21.5116 15.3476 21.1123C15.6969 20.713 15.8716 20.2389 15.8716 19.6899C15.8716 19.1159 15.6096 18.6293 15.0855 18.23C14.5864 17.8057 13.9376 17.5187 13.139 17.369L8.23528 16.4332C7.16219 16.2335 6.18893 15.9216 5.3155 15.4974C4.44206 15.0731 3.68092 14.549 3.03208 13.9252C2.40819 13.2763 1.92156 12.5277 1.57219 11.6792C1.24777 10.8057 1.08556 9.83248 1.08556 8.7594C1.08556 7.08739 1.53476 5.61502 2.43315 4.3423C3.33154 3.04462 4.56683 2.03392 6.13902 1.31022C7.71121 0.586512 9.508 0.224659 11.5294 0.224659C13.6755 0.224659 15.5722 0.611467 17.2192 1.38508C18.8912 2.1587 20.2263 3.25674 21.2245 4.67919C22.2477 6.0767 22.8217 7.7487 22.9465 9.69522H15.7968C15.7468 8.8717 15.5347 8.16047 15.1604 7.56154C14.7861 6.96261 14.2994 6.50094 13.7005 6.17652C13.1016 5.8521 12.4028 5.68989 11.6043 5.68989C10.9055 5.68989 10.3066 5.80219 9.80746 6.02679C9.30836 6.25138 8.92155 6.56333 8.64704 6.96261C8.37253 7.33694 8.23528 7.77366 8.23528 8.27277C8.23528 8.67206 8.34757 9.02143 8.57217 9.32089C8.82173 9.5954 9.14615 9.83248 9.54543 10.0321C9.94472 10.2068 10.3814 10.3441 10.8556 10.4439L16.0588 11.4546C18.4545 11.9287 20.2762 12.7647 21.524 13.9626C22.7718 15.1355 23.3957 16.6952 23.3957 18.6417Z" fill="white"></path><path d="M46.038 21.2995V27.4385H27.022V0.561557H45.776V6.70058H34.0968V10.5562H44.6904V16.6952H34.0968V21.2995H46.038Z" fill="white"></path><path d="M62.3667 28C60.4202 28 58.6109 27.6631 56.9389 26.9893C55.2669 26.2906 53.7945 25.3173 52.5218 24.0695C51.274 22.7968 50.2883 21.312 49.5646 19.615C48.8659 17.8931 48.5165 16.0089 48.5165 13.9626C48.5165 11.9163 48.8659 10.0446 49.5646 8.34763C50.2883 6.65067 51.274 5.1783 52.5218 3.93053C53.7945 2.68276 55.2669 1.72198 56.9389 1.04819C58.6109 0.349436 60.4202 6.10352e-05 62.3667 6.10352e-05C64.3132 6.10352e-05 66.1225 0.349436 67.7945 1.04819C69.4915 1.72198 70.9638 2.68276 72.2116 3.93053C73.4843 5.1783 74.4701 6.65067 75.1688 8.34763C75.8925 10.0446 76.2544 11.9163 76.2544 13.9626C76.2544 16.0089 75.8925 17.8931 75.1688 19.615C74.4701 21.312 73.4843 22.7968 72.2116 24.0695C70.9638 25.3173 69.4915 26.2906 67.7945 26.9893C66.1225 27.6631 64.3132 28 62.3667 28ZM62.3667 21.6738C63.4148 21.6738 64.3507 21.4742 65.1742 21.0749C65.9977 20.6756 66.684 20.1266 67.233 19.4278C67.807 18.7041 68.2312 17.8806 68.5057 16.9572C68.8052 16.0089 68.9549 15.0107 68.9549 13.9626C68.9549 12.9145 68.8052 11.9287 68.5057 11.0054C68.2312 10.082 67.807 9.27098 67.233 8.57223C66.684 7.87348 65.9977 7.32447 65.1742 6.92518C64.3507 6.52589 63.4148 6.32625 62.3667 6.32625C61.3186 6.32625 60.3828 6.52589 59.5592 6.92518C58.7357 7.32447 58.0369 7.87348 57.463 8.57223C56.914 9.27098 56.4897 10.082 56.1903 11.0054C55.9157 11.9287 55.7785 12.9145 55.7785 13.9626C55.7785 15.0107 55.9157 16.0089 56.1903 16.9572C56.4897 17.8806 56.914 18.7041 57.463 19.4278C58.0369 20.1266 58.7357 20.6756 59.5592 21.0749C60.3828 21.4742 61.3186 21.6738 62.3667 21.6738Z" fill="white"></path><path d="M103.164 0.561557V16.7326C103.164 18.9038 102.715 20.8378 101.816 22.5348C100.943 24.2317 99.6329 25.5668 97.886 26.5401C96.1641 27.5134 94.0429 28 91.5224 28C88.9769 28 86.8308 27.5134 85.0839 26.5401C83.362 25.5668 82.0518 24.2317 81.1534 22.5348C80.28 20.8378 79.8433 18.9038 79.8433 16.7326V0.561557H86.9181V16.8449C86.9181 17.7683 87.0554 18.6043 87.3299 19.353C87.6044 20.0767 88.0661 20.6506 88.7149 21.0749C89.3887 21.4742 90.3245 21.6738 91.5224 21.6738C92.7202 21.6738 93.6436 21.4742 94.2924 21.0749C94.9662 20.6506 95.4279 20.0767 95.6775 19.353C95.952 18.6043 96.0892 17.7683 96.0892 16.8449V0.561557H103.164Z" fill="white"></path><path d="M144.575 27.4385H137.5V0.561557H144.575V27.4385Z" fill="white"></path><path d="M155.31 16.8824H166.727L168.562 22.4599H153.439L155.31 16.8824ZM167.364 27.4385L161.075 8.34763L154.599 27.4385H147.449L157.406 0.561557H165.155L175 27.4385H167.364Z" fill="white"></path><path d="M76.1826 21.861H66.3252L64.4535 27.4385H79.5765L76.1826 21.861Z" fill="white"></path><g clip-path="url(#clip0_35_124)"><path d="M120.481 27.9999C118.516 27.9999 116.69 27.663 115.002 26.9892C113.314 26.2905 111.828 25.3172 110.543 24.0695C109.284 22.7967 108.289 21.3119 107.558 19.6149C106.853 17.893 106.5 16.0089 106.5 13.9625C106.5 11.9162 106.853 10.0445 107.558 8.34757C108.289 6.65061 109.284 5.17824 110.543 3.93047C111.828 2.6827 113.314 1.72192 115.002 1.04813C116.69 0.349375 118.516 0 120.481 0C122.446 0 124.272 0.349375 125.96 1.04813C127.673 1.72192 129.159 2.6827 130.419 3.93047C131.704 5.17824 132.699 6.65061 133.404 8.34757C134.135 10.0445 134.5 11.9162 134.5 13.9625C134.5 16.0089 134.135 17.893 133.404 19.6149C132.699 21.3119 131.704 22.7967 130.419 24.0695C129.159 25.3172 127.673 26.2905 125.96 26.9892C124.272 27.663 122.446 27.9999 120.481 27.9999Z" fill="#FE2743"></path><path fill-rule="evenodd" clip-rule="evenodd" d="M119.75 24V4.8H121.25V24H119.75Z" fill="white"></path><path d="M119.75 12.0075C119.745 14.592 117.315 16.85 114.1 16.85V18.35C116.846 18.35 119.311 16.9508 120.5 14.8435C121.689 16.9508 124.154 18.35 126.9 18.35V16.85C123.685 16.85 121.255 14.592 121.25 12.0075C121.25 12.005 121.25 12.0025 121.25 12H119.75C119.75 12.0025 119.75 12.005 119.75 12.0075Z" fill="white"></path><path d="M119.75 8.00745C119.745 10.592 117.315 12.85 114.1 12.85V14.35C116.846 14.35 119.311 12.9508 120.5 10.8435C121.689 12.9508 124.154 14.35 126.9 14.35V12.85C123.685 12.85 121.255 10.592 121.25 8.00745C121.25 8.00497 121.25 8.00248 121.25 8H119.75C119.75 8.00248 119.75 8.00497 119.75 8.00745Z" fill="white"></path><path d="M119.75 4.00745C119.745 6.59198 117.315 8.85 114.1 8.85V10.35C116.846 10.35 119.311 8.95082 120.5 6.84348C121.689 8.95082 124.154 10.35 126.9 10.35V8.85C123.685 8.85 121.255 6.59198 121.25 4.00745C121.25 4.00497 121.25 4.00248 121.25 4H119.75C119.75 4.00248 119.75 4.00497 119.75 4.00745Z" fill="white"></path></g><defs><clipPath id="clip0_35_124"><path d="M106.5 14C106.5 6.268 112.768 0 120.5 0C128.232 0 134.5 6.268 134.5 14C134.5 21.7319 128.232 27.9999 120.5 27.9999C112.768 27.9999 106.5 21.7319 106.5 14Z" fill="white"></path></clipPath></defs></svg>